<svg width="935" height="257" viewBox="0 0 935 257" fill="none" xmlns="http://www.w3.org/2000/svg">
<mask id="mask0_1_2" style="mask-type:luminance" maskUnits="userSpaceOnUse" x="40" y="46" width="142" height="147">
<path d="M140.964 161.431C129.428 180.189 106.106 189.525 83.821 182.715C57.4118 174.646 42.4644 146.948 50.4374 120.855C56.2642 101.786 72.718 88.8486 91.4615 86.4136" stroke="white" stroke-width="15" stroke-linecap="round" stroke-linejoin="round"/>
<path d="M118.535 82.65L113.285 138.487H164.735V169.275H174.185" stroke="white" stroke-width="15" stroke-linecap="round" stroke-linejoin="round"/>
<path d="M130.61 65.85C130.61 68.9132 129.393 71.851 127.227 74.0171C125.061 76.1831 122.123 77.4 119.06 77.4C115.997 77.4 113.059 76.1831 110.893 74.0171C108.727 71.851 107.51 68.9132 107.51 65.85C107.51 62.7867 108.727 59.8489 110.893 57.6829C113.059 55.5169 115.997 54.3 119.06 54.3C122.123 54.3 125.061 55.5169 127.227 57.6829C129.393 59.8489 130.61 62.7867 130.61 65.85Z" fill="white" stroke="white" stroke-width="15" stroke-linecap="round" stroke-linejoin="round"/>
<path d="M119.06 109.95H136.91" stroke="white" stroke-width="15" stroke-linecap="round" stroke-linejoin="round"/>
</mask>
<g mask="url(#mask0_1_2)">
<path d="M6.71011 6H216.71V216H6.71011V6Z" fill="black"/>
</g>
<path d="M198.694 89.96H214.438V145.768C214.438 151.4 215.675 155.837 218.15 159.08C220.625 162.237 224.593 163.816 230.054 163.816C235.515 163.816 239.483 162.237 241.958 159.08C244.433 155.837 245.67 151.4 245.67 145.768V89.96H261.414V145.768C261.414 155.581 258.811 163.475 253.606 169.448C248.401 175.336 240.55 178.28 230.054 178.28C219.473 178.28 211.579 175.336 206.374 169.448C201.254 163.475 198.694 155.581 198.694 145.768V89.96ZM311.652 177H296.292V89.96H311.652V177ZM348.467 177V89.96H377.907C388.318 89.96 396.254 92.8613 401.715 98.664C407.176 104.467 409.907 113 409.907 124.264V142.568C409.907 153.917 407.176 162.493 401.715 168.296C396.254 174.099 388.318 177 377.907 177H348.467ZM377.267 104.68H363.827V162.28H377.267C383.326 162.28 387.635 160.787 390.195 157.8C392.84 154.813 394.163 149.736 394.163 142.568V124.264C394.163 117.181 392.84 112.147 390.195 109.16C387.635 106.173 383.326 104.68 377.267 104.68ZM493.449 162.28V177H443.017V89.96H492.169V104.68H458.377V125.544H488.329V140.264H458.377V162.28H493.449ZM539.802 145V177H524.442V89.96H553.498C562.287 89.96 569.029 92.2213 573.722 96.744C578.501 101.181 580.89 107.155 580.89 114.664V120.168C580.89 125.117 579.823 129.469 577.69 133.224C575.557 136.979 572.485 139.837 568.474 141.8C575.471 153.747 581.445 165.48 586.394 177H568.858C564.591 166.333 559.514 155.667 553.626 145H539.802ZM553.498 104.04H539.802V130.92H553.498C557.253 130.92 560.111 129.981 562.074 128.104C564.122 126.141 565.146 123.496 565.146 120.168V114.664C565.146 111.421 564.122 108.861 562.074 106.984C560.111 105.021 557.253 104.04 553.498 104.04ZM676.81 124.264V142.568C676.81 153.661 674.037 162.408 668.49 168.808C662.943 175.123 654.837 178.28 644.17 178.28C633.418 178.28 625.269 175.123 619.722 168.808C614.261 162.408 611.53 153.661 611.53 142.568V124.264C611.53 113.171 614.261 104.467 619.722 98.152C625.269 91.8373 633.418 88.68 644.17 88.68C654.837 88.68 662.943 91.8373 668.49 98.152C674.037 104.467 676.81 113.171 676.81 124.264ZM661.066 124.264C661.066 117.267 659.701 112.019 656.97 108.52C654.239 104.936 649.973 103.144 644.17 103.144C638.367 103.144 634.101 104.936 631.37 108.52C628.639 112.019 627.274 117.267 627.274 124.264V142.568C627.274 149.565 628.639 154.856 631.37 158.44C634.101 162.024 638.367 163.816 644.17 163.816C649.973 163.816 654.239 162.024 656.97 158.44C659.701 154.856 661.066 149.565 661.066 142.568V124.264ZM771.485 124.264V142.568C771.485 153.661 768.712 162.408 763.165 168.808C757.618 175.123 749.512 178.28 738.845 178.28C728.093 178.28 719.944 175.123 714.397 168.808C708.936 162.408 706.205 153.661 706.205 142.568V124.264C706.205 113.171 708.936 104.467 714.397 98.152C719.944 91.8373 728.093 88.68 738.845 88.68C749.512 88.68 757.618 91.8373 763.165 98.152C768.712 104.467 771.485 113.171 771.485 124.264ZM755.741 124.264C755.741 117.267 754.376 112.019 751.645 108.52C748.914 104.936 744.648 103.144 738.845 103.144C733.042 103.144 728.776 104.936 726.045 108.52C723.314 112.019 721.949 117.267 721.949 124.264V142.568C721.949 149.565 723.314 154.856 726.045 158.44C728.776 162.024 733.042 163.816 738.845 163.816C744.648 163.816 748.914 162.024 751.645 158.44C754.376 154.856 755.741 149.565 755.741 142.568V124.264ZM821.36 89.96L845.68 149.48L869.872 89.96H886.64V177H871.92V143.72L873.84 113.256L852.208 166.76H838.512L817.392 113.128L819.312 143.72V177H804.592V89.96H821.36Z" fill="black"/>
</svg>
